<!--?xml version="1.0" encoding="utf-8"?-->
<!-- Generator: Adobe Illustrator 18.1.1, SVG Export Plug-In . SVG Version: 6.00 Build 0)  -->

<svg version="1.1" id="_x32_" xmlns="http://www.w3.org/2000/svg" xmlns:xlink="http://www.w3.org/1999/xlink" x="0px" y="0px" viewBox="0 0 512 512" style="width: 256px; height: 256px; opacity: 1;" xml:space="preserve">
<style type="text/css">
	.st0{fill:#4B4B4B;}
</style>
<g>
	<path class="st0" d="M365.202,66.812c1.711-3.899,11.407-4.296,32.288-1.324c20.89,2.982,39.504-1.517,49.535-16.514
		c9.466-14.16,9.334-34.582-21.614-45.75c-32.818-11.849-55.852,11.662-62.53,26.844c-3.246,7.376-15.835,35.994-15.835,35.994
		l15.483,6.829C362.529,72.891,363.482,70.72,365.202,66.812z" style="fill: rgb(75, 75, 75);"></path>
	<polygon class="st0" points="360.809,76.808 345.317,69.988 339.821,86.468 352.375,91.982 	" style="fill: rgb(75, 75, 75);"></polygon>
	<path class="st0" d="M429.769,91.479c-32.844-11.866-55.869,11.646-62.557,26.836c-3.238,7.366-15.835,36.003-15.835,36.003
		l15.483,6.818c0,0,0.961-2.17,2.673-6.069c1.729-3.909,11.415-4.314,32.297-1.332c20.872,2.973,39.504-1.509,49.544-16.524
		C460.832,123.071,460.682,102.647,429.769,91.479z" style="fill: rgb(75, 75, 75);"></path>
	<path class="st0" d="M359.41,175.367l5.729-10.321l-15.482-6.82l-3.741,11.212l-23.144-10.189l27.696-62.928l-12.553-5.514
		l-27.688,62.927l-17.6-7.746l21.945-49.888l-12.774-5.611l-21.945,49.88l-59.72-26.281l-23.493,53.4l167.538,73.725
		c-0.366,3.379-0.745,6.881-1.143,10.595l-170.489-75.013l-36.47,82.874c-5.046,11.459-14.45,20.458-26.131,24.993l-14.741,5.734
		c-11.672,4.552-21.068,13.542-26.114,25.011l-28.61,64.982c-14.009,31.857,0.45,69.041,32.289,83.051l98.242,43.228
		c24.684,10.85,52.512,4.56,70.333-13.613c3.039,2.144,6.206,4.05,9.542,5.505c8.125,3.591,16.885,5.152,25.636,4.976
		c13.128-0.283,26.272-4.429,37.786-11.98c11.494-7.56,21.366-18.649,27.551-32.721c3.414-7.736,5.69-16.356,6.546-25.663
		c2.831-30.48,8.769-87.064,13.982-135.965c2.612-24.454,5.029-46.994,6.802-63.429c0.882-8.214,1.614-14.892,2.126-19.524
		c0.503-4.632,0.776-7.199,0.776-7.207l-0.378-0.044l6.422-14.591L359.41,175.367z M344.426,430.932
		c-0.627,6.82-2.258,12.871-4.605,18.208c-2.849,6.466-6.766,11.918-11.372,16.382c-6.916,6.678-15.43,11.08-23.969,12.924
		c-4.252,0.936-8.504,1.236-12.545,0.892c-4.049-0.327-7.869-1.279-11.354-2.806c-2.118-0.935-4.062-2.161-5.924-3.538
		l85.49-194.286c-0.556,5.196-1.125,10.515-1.703,15.95C353.23,343.603,347.301,400.178,344.426,430.932z" style="fill: rgb(75, 75, 75);"></path>
	<path class="st0" d="M260.714,47.625l44.171,29.104l-4.032,9.166l17.671,7.782l11.477-26.079c2.849-6.466,1.703-14-2.929-19.328
		L295.657,12.09c-3.899-4.482-9.73-6.792-15.65-6.192c-5.902,0.608-11.151,4.058-14.062,9.245l-9.157,16.383
		C253.665,37.091,255.377,44.113,260.714,47.625z" style="fill: rgb(75, 75, 75);"></path>
	<path class="st0" d="M207.006,83.098l44.18,29.112l-4.041,9.158l17.688,7.79l11.469-26.087c2.84-6.466,1.711-13.991-2.93-19.328
		l-31.415-36.179c-3.891-4.482-9.73-6.793-15.641-6.184c-5.92,0.609-11.151,4.049-14.063,9.237l-9.175,16.382
		C199.957,72.564,201.677,79.604,207.006,83.098z" style="fill: rgb(75, 75, 75);"></path>
</g>
</svg>
