<!--?xml version="1.0" encoding="utf-8"?-->
<!-- Generator: Adobe Illustrator 18.1.1, SVG Export Plug-In . SVG Version: 6.00 Build 0)  -->

<svg version="1.1" id="_x32_" xmlns="http://www.w3.org/2000/svg" xmlns:xlink="http://www.w3.org/1999/xlink" x="0px" y="0px" viewBox="0 0 512 512" style="width: 256px; height: 256px; opacity: 1;" xml:space="preserve">
<style type="text/css">
	.st0{fill:#4B4B4B;}
</style>
<g>
	<path class="st0" d="M297.841,259.508v67.249c16.96,6.448,27.968,16.696,27.968,28.264c0,19.112-29.944,34.704-67.385,35.337
		c-0.784,0.048-1.616,0.048-2.448,0.048c-17.304,0-33.08-3.184-45.289-8.472c-14.992-6.472-24.504-16.128-24.504-26.912
		s9.512-20.432,24.504-26.905c3.688-1.592,7.808-2.92,12.104-4.096v37.833c9.656,4.952,22.144,7.927,35.824,7.927
		c0.664,0,1.32,0,1.944-0.047V161.387l138.418-72.01L222.792,0v258.812c-122.866,8.24-217.716,61.48-217.716,126.01
		C5.076,455.055,117.421,512,255.992,512c138.586,0,250.932-56.945,250.932-127.178
		C506.924,321.821,416.475,269.604,297.841,259.508z M417.307,436.375c-17.72,0-32.08-14.361-32.08-32.081
		c0-17.72,14.36-32.08,32.08-32.08s32.08,14.361,32.08,32.08C449.387,422.014,435.027,436.375,417.307,436.375z" style="fill: rgb(75, 75, 75);"></path>
</g>
</svg>
